<svg width="16" height="16" viewBox="0 0 16 16" fill="none" xmlns="http://www.w3.org/2000/svg">
<path d="M1.77778 16C1.28889 16 0.870222 15.8261 0.521778 15.4782C0.173926 15.1298 0 14.7111 0 14.2222V1.77778C0 1.28889 0.173926 0.870222 0.521778 0.521778C0.870222 0.173926 1.28889 0 1.77778 0H14.2222C14.7111 0 15.1298 0.173926 15.4782 0.521778C15.8261 0.870222 16 1.28889 16 1.77778V14.2222C16 14.7111 15.8261 15.1298 15.4782 15.4782C15.1298 15.8261 14.7111 16 14.2222 16H1.77778ZM6.75556 11.3556C6.87407 11.3556 6.98519 11.3372 7.08889 11.3004C7.19259 11.2631 7.28889 11.2 7.37778 11.1111L12.4222 6.06667C12.5852 5.9037 12.6667 5.7037 12.6667 5.46667C12.6667 5.22963 12.5778 5.02222 12.4 4.84444C12.237 4.68148 12.0296 4.6 11.7778 4.6C11.5259 4.6 11.3185 4.68148 11.1556 4.84444L6.75556 9.24444L4.82222 7.31111C4.65926 7.14815 4.45926 7.06667 4.22222 7.06667C3.98519 7.06667 3.77778 7.15556 3.6 7.33333C3.43704 7.4963 3.35556 7.7037 3.35556 7.95556C3.35556 8.20741 3.43704 8.41481 3.6 8.57778L6.13333 11.1111C6.22222 11.2 6.31852 11.2631 6.42222 11.3004C6.52593 11.3372 6.63704 11.3556 6.75556 11.3556Z" fill="#016BDE"/>
</svg>
